{
  "accessors": [
    {
      "bufferView": 2,
      "componentType": 5126,
      "count": 65532,
      "max": [
        3.607187032699585,
        3.965632915496826,
        4.571878433227539
      ],
      "min": [
        -3.607187032699585,
        -3.9656317234039307,
        -4.5718770027160645
      ],
      "type": "VEC3"
    },
    {
      "bufferView": 2,
      "byteOffset": 786384,
      "componentType": 5126,
      "count": 65532,
      "max": [
        1.0,
        1.0,
        1.0
      ],
      "min": [
        -1.0,
        -1.0,
        -1.0
      ],
      "type": "VEC3"
    },
    {
      "bufferView": 1,
      "componentType": 5126,
      "count": 65532,
      "max": [
        21.336204528808594,
        25.5
      ],
      "min": [
        -24.499998092651367,
        -24.5
      ],
      "type": "VEC2"
    },
    {
      "bufferView": 0,
      "componentType": 5125,
      "count": 145437,
      "type": "SCALAR"
    },
    {
      "bufferView": 2,
      "byteOffset": 1572768,
      "componentType": 5126,
      "count": 22205,
      "max": [
        3.5966386795043945,
        3.1363658905029297,
        3.8737521171569824
      ],
      "min": [
        -3.6040780544281006,
        -3.1363658905029297,
        -2.969055414199829
      ],
      "type": "VEC3"
    },
    {
      "bufferView": 2,
      "byteOffset": 1839228,
      "componentType": 5126,
      "count": 22205,
      "max": [
        1.0,
        1.0,
        1.0
      ],
      "min": [
        -1.0,
        -1.0,
        -1.0
      ],
      "type": "VEC3"
    },
    {
      "bufferView": 1,
      "byteOffset": 524256,
      "componentType": 5126,
      "count": 22205,
      "max": [
        20.044981002807617,
        24.407428741455078
      ],
      "min": [
        -4.5,
        -24.331241607666016
      ],
      "type": "VEC2"
    },
    {
      "bufferView": 0,
      "byteOffset": 581748,
      "componentType": 5125,
      "count": 47937,
      "type": "SCALAR"
    },
    {
      "bufferView": 2,
      "byteOffset": 2105688,
      "componentType": 5126,
      "count": 3996,
      "max": [
        2.854480266571045,
        1.3500292301177979,
        0.9344118237495422
      ],
      "min": [
        -2.854480266571045,
        -1.4164910316467285,
        -1.0877636671066284
      ],
      "type": "VEC3"
    },
    {
      "bufferView": 2,
      "byteOffset": 2153640,
      "componentType": 5126,
      "count": 3996,
      "max": [
        1.0,
        1.0,
        1.0
      ],
      "min": [
        -1.0,
        -1.0,
        -1.0
      ],
      "type": "VEC3"
    },
    {
      "bufferView": 1,
      "byteOffset": 701896,
      "componentType": 5126,
      "count": 3996,
      "max": [
        19.185955047607422,
        24.410091400146484
      ],
      "min": [
        -19.541011810302734,
        -24.5
      ],
      "type": "VEC2"
    },
    {
      "bufferView": 0,
      "byteOffset": 773496,
      "componentType": 5125,
      "count": 9990,
      "type": "SCALAR"
    },
    {
      "bufferView": 2,
      "byteOffset": 2201592,
      "componentType": 5126,
      "count": 92,
      "max": [
        3.50603985786438,
        3.8598668575286865,
        4.470902919769287
      ],
      "min": [
        -3.50603985786438,
        -3.8598666191101074,
        -4.470901012420654
      ],
      "type": "VEC3"
    },
    {
      "bufferView": 2,
      "byteOffset": 2202696,
      "componentType": 5126,
      "count": 92,
      "max": [
        1.0,
        0.7367491722106934,
        0.8504490256309509
      ],
      "min": [
        -1.0,
        -0.7367481589317322,
        -0.8504497408866882
      ],
      "type": "VEC3"
    },
    {
      "bufferView": 1,
      "byteOffset": 733864,
      "componentType": 5126,
      "count": 92,
      "max": [
        25.499998092651367,
        23.646800994873047
      ],
      "min": [
        -24.499998092651367,
        -4.499999523162842
      ],
      "type": "VEC2"
    },
    {
      "bufferView": 0,
      "byteOffset": 813456,
      "componentType": 5125,
      "count": 156,
      "type": "SCALAR"
    },
    {
      "bufferView": 2,
      "byteOffset": 2203800,
      "componentType": 5126,
      "count": 17456,
      "max": [
        3.356786012649536,
        3.8433427810668945,
        4.4724440574646
      ],
      "min": [
        -3.356786012649536,
        -3.8433427810668945,
        -4.4724440574646
      ],
      "type": "VEC3"
    },
    {
      "bufferView": 2,
      "byteOffset": 2413272,
      "componentType": 5126,
      "count": 17456,
      "max": [
        1.0,
        1.0,
        1.0
      ],
      "min": [
        -1.0,
        -1.0,
        -1.0
      ],
      "type": "VEC3"
    },
    {
      "bufferView": 1,
      "byteOffset": 734600,
      "componentType": 5126,
      "count": 17456,
      "max": [
        0.0,
        0.0
      ],
      "min": [
        0.0,
        0.0
      ],
      "type": "VEC2"
    },
    {
      "bufferView": 0,
      "byteOffset": 814080,
      "componentType": 5125,
      "count": 26208,
      "type": "SCALAR"
    },
    {
      "bufferView": 2,
      "byteOffset": 2622744,
      "componentType": 5126,
      "count": 474,
      "max": [
        0.4009855091571808,
        -1.1367824077606201,
        -0.9665089845657349
      ],
      "min": [
        -0.4009855091571808,
        -1.27359938621521,
        -1.0711936950683594
      ],
      "type": "VEC3"
    },
    {
      "bufferView": 2,
      "byteOffset": 2628432,
      "componentType": 5126,
      "count": 474,
      "max": [
        0.999983012676239,
        1.0,
        1.0
      ],
      "min": [
        -0.999983012676239,
        -1.0,
        -1.0
      ],
      "type": "VEC3"
    },
    {
      "bufferView": 1,
      "byteOffset": 874248,
      "componentType": 5126,
      "count": 474,
      "max": [
        19.0239315032959,
        23.944059371948242
      ],
      "min": [
        7.370598793029785,
        -24.5
      ],
      "type": "VEC2"
    },
    {
      "bufferView": 0,
      "byteOffset": 918912,
      "componentType": 5125,
      "count": 1272,
      "type": "SCALAR"
    },
    {
      "bufferView": 2,
      "byteOffset": 2634120,
      "componentType": 5126,
      "count": 190,
      "max": [
        0.6901785135269165,
        0.7374279499053955,
        1.324920415878296
      ],
      "min": [
        -0.6901792287826538,
        -1.383866786956787,
        -0.6901795268058777
      ],
      "type": "VEC3"
    },
    {
      "bufferView": 2,
      "byteOffset": 2636400,
      "componentType": 5126,
      "count": 190,
      "max": [
        0.5974187850952148,
        0.4490310847759247,
        0.9952992796897888
      ],
      "min": [
        -0.5974191427230835,
        -1.0,
        -0.5974188446998596
      ],
      "type": "VEC3"
    },
    {
      "bufferView": 1,
      "byteOffset": 878040,
      "componentType": 5126,
      "count": 190,
      "max": [
        0.0,
        0.0
      ],
      "min": [
        0.0,
        0.0
      ],
      "type": "VEC2"
    },
    {
      "bufferView": 0,
      "byteOffset": 924000,
      "componentType": 5125,
      "count": 540,
      "type": "SCALAR"
    },
    {
      "bufferView": 2,
      "byteOffset": 2638680,
      "componentType": 5126,
      "count": 160,
      "max": [
        0.9575729370117188,
        1.1084554195404053,
        0.07138879597187042
      ],
      "min": [
        -0.9575729370117188,
        1.0906296968460083,
        -0.07138562947511673
      ],
      "type": "VEC3"
    },
    {
      "bufferView": 2,
      "byteOffset": 2640600,
      "componentType": 5126,
      "count": 160,
      "max": [
        1.0,
        1.0,
        1.0
      ],
      "min": [
        -1.0,
        0.0,
        -1.0
      ],
      "type": "VEC3"
    },
    {
      "bufferView": 1,
      "byteOffset": 879560,
      "componentType": 5126,
      "count": 160,
      "max": [
        0.7192449569702148,
        0.15194450318813324
      ],
      "min": [
        0.6970542669296265,
        0.13112126290798187
      ],
      "type": "VEC2"
    },
    {
      "bufferView": 0,
      "byteOffset": 926160,
      "componentType": 5125,
      "count": 468,
      "type": "SCALAR"
    },
    {
      "bufferView": 2,
      "byteOffset": 2642520,
      "componentType": 5126,
      "count": 863,
      "max": [
        0.920716404914856,
        0.9493988752365112,
        0.9823086857795715
      ],
      "min": [
        -0.920716404914856,
        -0.9207184314727783,
        -0.9207139611244202
      ],
      "type": "VEC3"
    },
    {
      "bufferView": 2,
      "byteOffset": 2652876,
      "componentType": 5126,
      "count": 863,
      "max": [
        1.0,
        1.0,
        1.0
      ],
      "min": [
        -1.0,
        -1.0,
        -1.0
      ],
      "type": "VEC3"
    },
    {
      "bufferView": 1,
      "byteOffset": 880840,
      "componentType": 5126,
      "count": 863,
      "max": [
        0.875,
        1.0
      ],
      "min": [
        0.0,
        0.0
      ],
      "type": "VEC2"
    },
    {
      "bufferView": 0,
      "byteOffset": 928032,
      "componentType": 5125,
      "count": 2382,
      "type": "SCALAR"
    },
    {
      "bufferView": 2,
      "byteOffset": 2663232,
      "componentType": 5126,
      "count": 13871,
      "max": [
        -0.6803910136222839,
        0.15327155590057373,
        0.710849940776825
      ],
      "min": [
        -2.5855534076690674,
        -1.7907369136810303,
        -0.9320073127746582
      ],
      "type": "VEC3"
    },
    {
      "bufferView": 2,
      "byteOffset": 2829684,
      "componentType": 5126,
      "count": 13871,
      "max": [
        1.0,
        1.0,
        1.0
      ],
      "min": [
        -1.0,
        -1.0,
        -1.0
      ],
      "type": "VEC3"
    },
    {
      "bufferView": 1,
      "byteOffset": 887744,
      "componentType": 5126,
      "count": 13871,
      "max": [
        1.0,
        1.000001072883606
      ],
      "min": [
        -1.862645149230957e-07,
        0.0
      ],
      "type": "VEC2"
    },
    {
      "bufferView": 0,
      "byteOffset": 937560,
      "componentType": 5125,
      "count": 32862,
      "type": "SCALAR"
    },
    {
      "bufferView": 2,
      "byteOffset": 2996136,
      "componentType": 5126,
      "count": 72,
      "max": [
        -1.4522950649261475,
        -1.3547106981277466,
        0.07974657416343689
      ],
      "min": [
        -1.8088171482086182,
        -1.4073032140731812,
        -0.12125769257545471
      ],
      "type": "VEC3"
    },
    {
      "bufferView": 2,
      "byteOffset": 2997000,
      "componentType": 5126,
      "count": 72,
      "max": [
        0.23513899743556976,
        1.0,
        0.0
      ],
      "min": [
        -0.23513859510421753,
        0.9719618558883667,
        -1.230627162840392e-06
      ],
      "type": "VEC3"
    },
    {
      "bufferView": 1,
      "byteOffset": 998712,
      "componentType": 5126,
      "count": 72,
      "max": [
        0.0,
        0.0
      ],
      "min": [
        0.0,
        0.0
      ],
      "type": "VEC2"
    },
    {
      "bufferView": 0,
      "byteOffset": 1069008,
      "componentType": 5125,
      "count": 198,
      "type": "SCALAR"
    }
  ],
  "asset": {
    "extras": {
      "author": "Daniel (https://sketchfab.com/DanielAndersson)",
      "license": "CC-BY-4.0 (http://creativecommons.org/licenses/by/4.0/)",
      "source": "https://sketchfab.com/3d-models/star-wars-tie-fighter-79d9403f15334c129ea5454daffe6b5c",
      "title": "Star Wars: TIE Fighter"
    },
    "generator": "Sketchfab-12.68.0",
    "version": "2.0"
  },
  "bufferViews": [
    {
      "buffer": 0,
      "byteLength": 1069800,
      "name": "floatBufferViews",
      "target": 34963
    },
    {
      "buffer": 0,
      "byteLength": 999288,
      "byteOffset": 1069800,
      "byteStride": 8,
      "name": "floatBufferViews",
      "target": 34962
    },
    {
      "buffer": 0,
      "byteLength": 2997864,
      "byteOffset": 2069088,
      "byteStride": 12,
      "name": "floatBufferViews",
      "target": 34962
    }
  ],
  "buffers": [
    {
      "byteLength": 5066952,
      "uri": "scene.bin"
    }
  ],
  "materials": [
    {
      "doubleSided": true,
      "name": "Metal",
      "pbrMetallicRoughness": {
        "baseColorFactor": [
          0.29114,
          0.29114,
          0.29114,
          1.0
        ],
        "roughnessFactor": 0.9381194590716171
      }
    },
    {
      "doubleSided": true,
      "name": "MetalDark",
      "pbrMetallicRoughness": {
        "baseColorFactor": [
          0.08919443696464158,
          0.08919443696464158,
          0.08919443696464158,
          1.0
        ],
        "roughnessFactor": 0.9198777195393353
      }
    },
    {
      "doubleSided": true,
      "name": "Dark",
      "pbrMetallicRoughness": {
        "baseColorFactor": [
          0.0,
          0.0,
          0.0,
          1.0
        ]
      }
    },
    {
      "doubleSided": true,
      "name": "TieWIng",
      "pbrMetallicRoughness": {
        "baseColorFactor": [
          0.0168772,
          0.0168772,
          0.0168772,
          1.0
        ],
        "roughnessFactor": 0.15980523902759367
      }
    },
    {
      "doubleSided": true,
      "name": "MetalOrange",
      "pbrMetallicRoughness": {
        "baseColorFactor": [
          0.5446162458672856,
          0.09351732528087663,
          0.0,
          1.0
        ],
        "roughnessFactor": 0.8773136606306777
      }
    },
    {
      "alphaMode": "BLEND",
      "doubleSided": true,
      "name": "DarkWindow",
      "pbrMetallicRoughness": {
        "baseColorFactor": [
          0.00560467,
          0.00560467,
          0.00560467,
          0.9381194590716171
        ],
        "metallicFactor": 0.0,
        "roughnessFactor": 0.9987467576888547
      }
    },
    {
      "doubleSided": true,
      "emissiveFactor": [
        1.0,
        0.011413303814651762,
        0.008559137078311782
      ],
      "name": "RedEngineGlow",
      "pbrMetallicRoughness": {
        "baseColorFactor": [
          1.0,
          0.0,
          0.0,
          1.0
        ],
        "metallicFactor": 0.0
      }
    },
    {
      "doubleSided": true,
      "name": "material_0",
      "pbrMetallicRoughness": {
        "baseColorFactor": [
          0.0286504,
          0.0286504,
          0.0286504,
          1.0
        ],
        "metallicFactor": 0.0,
        "roughnessFactor": 0.993593575801744
      }
    },
    {
      "doubleSided": true,
      "emissiveFactor": [
        0.9054436491133686,
        0.17150991870079935,
        0.0052650982981142305
      ],
      "name": "BlankScreen",
      "pbrMetallicRoughness": {
        "baseColorFactor": [
          0.9086130794899596,
          0.15561093667115233,
          0.004414937673252178,
          1.0
        ],
        "metallicFactor": 0.0,
        "roughnessFactor": 0.8211145618000169
      }
    }
  ],
  "meshes": [
    {
      "name": "Tie Figther_Metal_0",
      "primitives": [
        {
          "attributes": {
            "NORMAL": 1,
            "POSITION": 0,
            "TEXCOORD_0": 2
          },
          "indices": 3,
          "material": 0,
          "mode": 4
        }
      ]
    },
    {
      "name": "Tie Figther_Metal_0",
      "primitives": [
        {
          "attributes": {
            "NORMAL": 5,
            "POSITION": 4,
            "TEXCOORD_0": 6
          },
          "indices": 7,
          "material": 0,
          "mode": 4
        }
      ]
    },
    {
      "name": "Tie Figther_MetalDark_0",
      "primitives": [
        {
          "attributes": {
            "NORMAL": 9,
            "POSITION": 8,
            "TEXCOORD_0": 10
          },
          "indices": 11,
          "material": 1,
          "mode": 4
        }
      ]
    },
    {
      "name": "Tie Figther_Dark_0",
      "primitives": [
        {
          "attributes": {
            "NORMAL": 13,
            "POSITION": 12,
            "TEXCOORD_0": 14
          },
          "indices": 15,
          "material": 2,
          "mode": 4
        }
      ]
    },
    {
      "name": "Tie Figther_TieWIng_0",
      "primitives": [
        {
          "attributes": {
            "NORMAL": 17,
            "POSITION": 16,
            "TEXCOORD_0": 18
          },
          "indices": 19,
          "material": 3,
          "mode": 4
        }
      ]
    },
    {
      "name": "Tie Figther_MetalOrange_0",
      "primitives": [
        {
          "attributes": {
            "NORMAL": 21,
            "POSITION": 20,
            "TEXCOORD_0": 22
          },
          "indices": 23,
          "material": 4,
          "mode": 4
        }
      ]
    },
    {
      "name": "Tie Figther_DarkWindow_0",
      "primitives": [
        {
          "attributes": {
            "NORMAL": 25,
            "POSITION": 24,
            "TEXCOORD_0": 26
          },
          "indices": 27,
          "material": 5,
          "mode": 4
        }
      ]
    },
    {
      "name": "Tie Figther_RedEngineGlow_0",
      "primitives": [
        {
          "attributes": {
            "NORMAL": 29,
            "POSITION": 28,
            "TEXCOORD_0": 30
          },
          "indices": 31,
          "material": 6,
          "mode": 4
        }
      ]
    },
    {
      "name": "Tie Figther_PolishedMetalDark_0",
      "primitives": [
        {
          "attributes": {
            "NORMAL": 33,
            "POSITION": 32,
            "TEXCOORD_0": 34
          },
          "indices": 35,
          "material": 7,
          "mode": 4
        }
      ]
    },
    {
      "name": "Interior_PolishedMetalDark_0",
      "primitives": [
        {
          "attributes": {
            "NORMAL": 37,
            "POSITION": 36,
            "TEXCOORD_0": 38
          },
          "indices": 39,
          "material": 7,
          "mode": 4
        }
      ]
    },
    {
      "name": "Interior_BlankScreen_0",
      "primitives": [
        {
          "attributes": {
            "NORMAL": 41,
            "POSITION": 40,
            "TEXCOORD_0": 42
          },
          "indices": 43,
          "material": 8,
          "mode": 4
        }
      ]
    }
  ],
  "nodes": [
    {
      "children": [
        1
      ],
      "matrix": [
        1.0,
        0.0,
        0.0,
        0.0,
        0.0,
        2.220446049250313e-16,
        -1.0,
        0.0,
        0.0,
        1.0,
        2.220446049250313e-16,
        0.0,
        0.0,
        0.0,
        0.0,
        1.0
      ],
      "name": "Sketchfab_model"
    },
    {
      "children": [
        2
      ],
      "matrix": [
        1.0,
        0.0,
        0.0,
        0.0,
        0.0,
        0.0,
        1.0,
        0.0,
        0.0,
        -1.0,
        0.0,
        0.0,
        0.0,
        0.0,
        0.0,
        1.0
      ],
      "name": "53b18218aad04e5cacbe06df30ae6701.fbx"
    },
    {
      "children": [
        3,
        5,
        8,
        11
      ],
      "name": "RootNode"
    },
    {
      "children": [
        4
      ],
      "matrix": [
        1.9470717385042123e-05,
        0.0,
        -99.99999237060358,
        0.0,
        6.196741797473817e-13,
        99.99999237060547,
        1.206550174814928e-19,
        0.0,
        99.99999999999811,
        -6.19674227024785e-13,
        1.9470718870540082e-05,
        0.0,
        2.071403216053619e-13,
        -4.0777347749099135e-05,
        2575.10546875,
        1.0
      ],
      "name": "CameraWithoutDOF"
    },
    {
      "name": "Object_4"
    },
    {
      "children": [
        6
      ],
      "matrix": [
        -61.124628967715175,
        -77.15306577184752,
        -17.64041313473483,
        0.0,
        0.4377426956917637,
        -22.618230307306067,
        97.40752314363091,
        0.0,
        -79.14282759146971,
        59.46275841490097,
        14.163039103214247,
        0.0,
        -155.55130004882813,
        -1052.3853759765625,
        -330.8740539550781,
        1.0
      ],
      "name": "Sun"
    },
    {
      "children": [
        7
      ],
      "matrix": [
        1.0,
        0.0,
        0.0,
        0.0,
        0.0,
        2.220446049250313e-16,
        1.0,
        0.0,
        0.0,
        -1.0,
        2.220446049250313e-16,
        0.0,
        0.0,
        0.0,
        0.0,
        1.0
      ],
      "name": "Object_6"
    },
    {
      "name": "Object_7"
    },
    {
      "children": [
        9
      ],
      "matrix": [
        124.01038360595703,
        -2.7531548012178333e-14,
        -2.802174918352297e-14,
        0.0,
        1.4358945386291852e-14,
        -1.1413237116055996,
        64.66693860639027,
        0.0,
        -1.4614605318737054e-14,
        -64.66693860639027,
        -1.1413237116055996,
        0.0,
        0.0,
        2.9612181186676025,
        54.44083786010742,
        1.0
      ],
      "name": "Point"
    },
    {
      "children": [
        10
      ],
      "matrix": [
        1.0,
        0.0,
        0.0,
        0.0,
        0.0,
        2.220446049250313e-16,
        1.0,
        0.0,
        0.0,
        -1.0,
        2.220446049250313e-16,
        0.0,
        0.0,
        0.0,
        0.0,
        1.0
      ],
      "name": "Object_9"
    },
    {
      "name": "Object_10"
    },
    {
      "children": [
        12,
        13,
        14,
        15,
        16,
        17,
        18,
        19,
        20,
        21
      ],
      "matrix": [
        100.0,
        0.0,
        0.0,
        0.0,
        0.0,
        -1.629206793918314e-05,
        -99.99999999999868,
        0.0,
        0.0,
        99.99999999999868,
        -1.629206793918314e-05,
        0.0,
        0.0,
        3.997120074927807e-05,
        0.0,
        1.0
      ],
      "name": "Tie Figther"
    },
    {
      "mesh": 0,
      "name": "Tie Figther_Metal_0"
    },
    {
      "mesh": 1,
      "name": "Tie Figther_Metal_0"
    },
    {
      "mesh": 2,
      "name": "Tie Figther_MetalDark_0"
    },
    {
      "mesh": 3,
      "name": "Tie Figther_Dark_0"
    },
    {
      "mesh": 4,
      "name": "Tie Figther_TieWIng_0"
    },
    {
      "mesh": 5,
      "name": "Tie Figther_MetalOrange_0"
    },
    {
      "mesh": 6,
      "name": "Tie Figther_DarkWindow_0"
    },
    {
      "mesh": 7,
      "name": "Tie Figther_RedEngineGlow_0"
    },
    {
      "mesh": 8,
      "name": "Tie Figther_PolishedMetalDark_0"
    },
    {
      "children": [
        22,
        23
      ],
      "matrix": [
        1.0,
        0.0,
        0.0,
        0.0,
        0.0,
        1.0,
        -2.646977960169688e-23,
        0.0,
        0.0,
        2.646977960169688e-23,
        1.0,
        0.0,
        1.6305574178695679,
        0.8142405152320862,
        -3.997120074927807e-07,
        1.0
      ],
      "name": "Interior"
    },
    {
      "mesh": 9,
      "name": "Interior_PolishedMetalDark_0"
    },
    {
      "mesh": 10,
      "name": "Interior_BlankScreen_0"
    }
  ],
  "scene": 0,
  "scenes": [
    {
      "name": "Sketchfab_Scene",
      "nodes": [
        0
      ]
    }
  ]
}
